<svg xmlns="http://www.w3.org/2000/svg" xmlns:xlink="http://www.w3.org/1999/xlink" width="500" zoomAndPan="magnify" viewBox="0 0 375 374.999991" height="500" preserveAspectRatio="xMidYMid meet" version="1.2"><defs><clipPath id="9e60fd3406"><path d="M 112.5 164.0625 L 132 164.0625 L 132 184 L 112.5 184 Z M 112.5 164.0625 "/></clipPath><clipPath id="023d4795f9"><path d="M 150 164.0625 L 169 164.0625 L 169 184 L 150 184 Z M 150 164.0625 "/></clipPath><clipPath id="a88a9f0c1c"><path d="M 149 164.0625 L 170 164.0625 L 170 184 L 149 184 Z M 149 164.0625 "/></clipPath><clipPath id="bc29202f61"><path d="M 187 164.0625 L 207 164.0625 L 207 184 L 187 184 Z M 187 164.0625 "/></clipPath><clipPath id="db9dccd0f3"><path d="M 224 164.0625 L 244 164.0625 L 244 184 L 224 184 Z M 224 164.0625 "/></clipPath><clipPath id="2cef679385"><path d="M 243 183 L 262.5 183 L 262.5 202 L 243 202 Z M 243 183 "/></clipPath><clipPath id="3028f2e280"><path d="M 243 182 L 262.5 182 L 262.5 202 L 243 202 Z M 243 182 "/></clipPath></defs><g id="54948c1a32"><rect x="0" width="375" y="0" height="374.999991" style="fill:#ffffff;fill-opacity:1;stroke:none;"/><rect x="0" width="375" y="0" height="374.999991" style="fill:#000000;fill-opacity:1;stroke:none;"/><g style="fill:#fd8c26;fill-opacity:1;"><g transform="translate(34.658205, 158.99999)"><path style="stroke:none" d="M 3.46875 0 L 3.46875 -34.734375 L 10.421875 -34.734375 L 10.421875 -27.78125 L 17.359375 -27.78125 L 17.359375 -20.84375 L 10.421875 -20.84375 L 10.421875 0 Z M 17.359375 -27.78125 L 17.359375 -34.734375 L 31.265625 -34.734375 L 31.265625 -27.78125 Z M 17.359375 -27.78125 "/></g></g><g style="fill:#fd8c26;fill-opacity:1;"><g transform="translate(69.392544, 158.99999)"><path style="stroke:none" d="M 3.46875 -6.953125 L 3.46875 -27.78125 L 10.421875 -27.78125 L 10.421875 -20.84375 L 31.265625 -20.84375 L 31.265625 -13.890625 L 10.421875 -13.890625 L 10.421875 -6.953125 Z M 10.421875 0 L 10.421875 -6.953125 L 31.265625 -6.953125 L 31.265625 0 Z M 10.421875 -27.78125 L 10.421875 -34.734375 L 31.265625 -34.734375 L 31.265625 -27.78125 Z M 31.265625 -20.84375 L 31.265625 -27.78125 L 38.203125 -27.78125 L 38.203125 -20.84375 Z M 31.265625 -20.84375 "/></g></g><g style="fill:#fd8c26;fill-opacity:1;"><g transform="translate(111.073743, 158.99999)"><path style="stroke:none" d="M 3.46875 -6.953125 L 3.46875 -48.625 L 10.421875 -48.625 L 10.421875 -34.734375 L 24.3125 -34.734375 L 24.3125 -27.78125 L 10.421875 -27.78125 L 10.421875 -6.953125 Z M 10.421875 0 L 10.421875 -6.953125 L 24.3125 -6.953125 L 24.3125 0 Z M 10.421875 0 "/></g></g><g style="fill:#fd8c26;fill-opacity:1;"><g transform="translate(138.861209, 158.99999)"><path style="stroke:none" d="M 3.46875 0 L 3.46875 -34.734375 L 10.421875 -34.734375 L 10.421875 -27.78125 L 17.359375 -27.78125 L 17.359375 -20.84375 L 10.421875 -20.84375 L 10.421875 0 Z M 17.359375 -27.78125 L 17.359375 -34.734375 L 31.265625 -34.734375 L 31.265625 -27.78125 Z M 17.359375 -27.78125 "/></g></g><g style="fill:#fd8c26;fill-opacity:1;"><g transform="translate(173.595547, 158.99999)"><path style="stroke:none" d="M 31.265625 -6.953125 L 31.265625 0 L 10.421875 0 L 10.421875 -6.953125 Z M 3.46875 -6.953125 L 3.46875 -27.78125 L 10.421875 -27.78125 L 10.421875 -6.953125 Z M 10.421875 -27.78125 L 10.421875 -34.734375 L 31.265625 -34.734375 L 31.265625 -27.78125 Z M 31.265625 -6.953125 L 31.265625 -27.78125 L 38.203125 -27.78125 L 38.203125 -6.953125 Z M 31.265625 -6.953125 "/></g></g><g style="fill:#fd8c26;fill-opacity:1;"><g transform="translate(215.276746, 158.99999)"><path style="stroke:none" d="M 31.265625 -6.953125 L 31.265625 0 L 24.3125 0 L 24.3125 -6.953125 Z M 3.46875 -6.953125 L 3.46875 -48.625 L 10.421875 -48.625 L 10.421875 -6.953125 Z M 10.421875 0 L 10.421875 -6.953125 L 17.359375 -6.953125 L 17.359375 0 Z M 17.359375 -6.953125 L 17.359375 -20.84375 L 24.3125 -20.84375 L 24.3125 -6.953125 Z M 31.265625 -6.953125 L 31.265625 -48.625 L 38.203125 -48.625 L 38.203125 -6.953125 Z M 31.265625 -6.953125 "/></g></g><g style="fill:#fd8c26;fill-opacity:1;"><g transform="translate(256.957934, 158.99999)"><path style="stroke:none" d="M 3.46875 -6.953125 L 3.46875 -27.78125 L 10.421875 -27.78125 L 10.421875 -20.84375 L 31.265625 -20.84375 L 31.265625 -13.890625 L 10.421875 -13.890625 L 10.421875 -6.953125 Z M 10.421875 0 L 10.421875 -6.953125 L 31.265625 -6.953125 L 31.265625 0 Z M 10.421875 -27.78125 L 10.421875 -34.734375 L 31.265625 -34.734375 L 31.265625 -27.78125 Z M 31.265625 -20.84375 L 31.265625 -27.78125 L 38.203125 -27.78125 L 38.203125 -20.84375 Z M 31.265625 -20.84375 "/></g></g><g style="fill:#fd8c26;fill-opacity:1;"><g transform="translate(298.639145, 158.99999)"><path style="stroke:none" d="M 3.46875 0 L 3.46875 -48.625 L 10.421875 -48.625 L 10.421875 -34.734375 L 31.265625 -34.734375 L 31.265625 -27.78125 L 10.421875 -27.78125 L 10.421875 -6.953125 L 31.265625 -6.953125 L 31.265625 0 Z M 31.265625 -6.953125 L 31.265625 -27.78125 L 38.203125 -27.78125 L 38.203125 -6.953125 Z M 31.265625 -6.953125 "/></g></g><g style="fill:#fd8c26;fill-opacity:1;"><g transform="translate(36.052737, 255.749983)"><path style="stroke:none" d="M 3.46875 0 L 3.46875 -48.625 L 38.203125 -48.625 L 38.203125 -41.6875 L 10.421875 -41.6875 L 10.421875 -27.78125 L 31.265625 -27.78125 L 31.265625 -20.84375 L 10.421875 -20.84375 L 10.421875 -6.953125 L 38.140625 -6.953125 L 38.140625 0 Z M 3.46875 0 "/></g></g><g style="fill:#fd8c26;fill-opacity:1;"><g transform="translate(77.733936, 255.749983)"><path style="stroke:none" d="M 45.15625 0 L 45.15625 -27.78125 L 52.09375 -27.78125 L 52.09375 0 Z M 3.46875 0 L 3.46875 -27.78125 L 10.421875 -27.78125 L 10.421875 0 Z M 10.421875 -27.78125 L 10.421875 -34.734375 L 24.3125 -34.734375 L 24.3125 -27.78125 Z M 24.3125 0 L 24.3125 -27.78125 L 31.265625 -27.78125 L 31.265625 0 Z M 31.265625 -27.78125 L 31.265625 -34.734375 L 45.15625 -34.734375 L 45.15625 -27.78125 Z M 31.265625 -27.78125 "/></g></g><g style="fill:#fd8c26;fill-opacity:1;"><g transform="translate(133.30888, 255.749983)"><path style="stroke:none" d="M 31.265625 -6.953125 L 31.265625 0 L 10.421875 0 L 10.421875 -6.953125 Z M 3.46875 -6.953125 L 3.46875 -34.734375 L 10.421875 -34.734375 L 10.421875 -6.953125 Z M 31.265625 -6.953125 L 31.265625 -34.734375 L 38.203125 -34.734375 L 38.203125 -6.953125 Z M 31.265625 -6.953125 "/></g></g><g style="fill:#fd8c26;fill-opacity:1;"><g transform="translate(174.990079, 255.749983)"><path style="stroke:none" d="M 3.46875 -6.953125 L 3.46875 -48.625 L 10.421875 -48.625 L 10.421875 -6.953125 Z M 10.421875 0 L 10.421875 -6.953125 L 17.359375 -6.953125 L 17.359375 0 Z M 10.421875 0 "/></g></g><g style="fill:#fd8c26;fill-opacity:1;"><g transform="translate(193.051933, 255.749983)"><path style="stroke:none" d="M 10.421875 0 L 10.421875 -6.953125 L 31.265625 -6.953125 L 31.265625 -13.890625 L 10.421875 -13.890625 L 10.421875 -20.84375 L 31.265625 -20.84375 L 31.265625 -27.78125 L 38.203125 -27.78125 L 38.203125 0 Z M 3.46875 -6.953125 L 3.46875 -13.890625 L 10.421875 -13.890625 L 10.421875 -6.953125 Z M 10.421875 -27.78125 L 10.421875 -34.734375 L 31.265625 -34.734375 L 31.265625 -27.78125 Z M 10.421875 -27.78125 "/></g></g><g style="fill:#fd8c26;fill-opacity:1;"><g transform="translate(234.733144, 255.749983)"><path style="stroke:none" d="M 3.46875 -6.953125 L 3.46875 -48.625 L 10.421875 -48.625 L 10.421875 -34.734375 L 24.3125 -34.734375 L 24.3125 -27.78125 L 10.421875 -27.78125 L 10.421875 -6.953125 Z M 10.421875 0 L 10.421875 -6.953125 L 24.3125 -6.953125 L 24.3125 0 Z M 10.421875 0 "/></g></g><g style="fill:#fd8c26;fill-opacity:1;"><g transform="translate(262.520587, 255.749983)"><path style="stroke:none" d="M 31.265625 -6.953125 L 31.265625 0 L 10.421875 0 L 10.421875 -6.953125 Z M 3.46875 -6.953125 L 3.46875 -27.78125 L 10.421875 -27.78125 L 10.421875 -6.953125 Z M 10.421875 -27.78125 L 10.421875 -34.734375 L 31.265625 -34.734375 L 31.265625 -27.78125 Z M 31.265625 -6.953125 L 31.265625 -27.78125 L 38.203125 -27.78125 L 38.203125 -6.953125 Z M 31.265625 -6.953125 "/></g></g><g style="fill:#fd8c26;fill-opacity:1;"><g transform="translate(304.201798, 255.749983)"><path style="stroke:none" d="M 3.46875 0 L 3.46875 -34.734375 L 10.421875 -34.734375 L 10.421875 -27.78125 L 17.359375 -27.78125 L 17.359375 -20.84375 L 10.421875 -20.84375 L 10.421875 0 Z M 17.359375 -27.78125 L 17.359375 -34.734375 L 31.265625 -34.734375 L 31.265625 -27.78125 Z M 17.359375 -27.78125 "/></g></g><g clip-rule="nonzero" clip-path="url(#9e60fd3406)"><path style="fill-rule:nonzero;fill:#ff3131;fill-opacity:1;stroke-width:2;stroke-linecap:butt;stroke-linejoin:miter;stroke:#231f20;stroke-opacity:1;stroke-miterlimit:10;" d="M 11.585442 233.746408 L 85.185236 233.746408 L 85.185236 307.346202 L 11.585442 307.346202 Z M 11.585442 233.746408 " transform="matrix(0.253854,0,0,0.253854,109.820709,104.990691)"/></g><g clip-rule="nonzero" clip-path="url(#023d4795f9)"><path style=" stroke:none;fill-rule:nonzero;fill:#ff3131;fill-opacity:1;" d="M 150.128906 164.328125 L 168.816406 164.328125 L 168.816406 183.011719 L 150.128906 183.011719 Z M 150.128906 164.328125 "/></g><g clip-rule="nonzero" clip-path="url(#a88a9f0c1c)"><path style="fill:none;stroke-width:2;stroke-linecap:butt;stroke-linejoin:miter;stroke:#231f20;stroke-opacity:1;stroke-miterlimit:10;" d="M 158.785029 233.746408 L 232.400211 233.746408 L 232.400211 307.346202 L 158.785029 307.346202 Z M 158.785029 233.746408 " transform="matrix(0.253854,0,0,0.253854,109.820709,104.990691)"/></g><g clip-rule="nonzero" clip-path="url(#bc29202f61)"><path style="fill-rule:nonzero;fill:#ff3131;fill-opacity:1;stroke-width:2;stroke-linecap:butt;stroke-linejoin:miter;stroke:#231f20;stroke-opacity:1;stroke-miterlimit:10;" d="M 306.000005 233.746408 L 379.615186 233.746408 L 379.615186 307.346202 L 306.000005 307.346202 Z M 306.000005 233.746408 " transform="matrix(0.253854,0,0,0.253854,109.820709,104.990691)"/></g><g clip-rule="nonzero" clip-path="url(#db9dccd0f3)"><path style="fill-rule:nonzero;fill:#ff3131;fill-opacity:1;stroke-width:2;stroke-linecap:butt;stroke-linejoin:miter;stroke:#231f20;stroke-opacity:1;stroke-miterlimit:10;" d="M 453.21498 233.746408 L 526.814774 233.746408 L 526.814774 307.346202 L 453.21498 307.346202 Z M 453.21498 233.746408 " transform="matrix(0.253854,0,0,0.253854,109.820709,104.990691)"/></g><path style="fill-rule:nonzero;fill:#ff3131;fill-opacity:1;stroke-width:2;stroke-linecap:butt;stroke-linejoin:miter;stroke:#231f20;stroke-opacity:1;stroke-miterlimit:10;" d="M 85.185236 307.346202 L 158.785029 307.346202 L 158.785029 380.961383 L 85.185236 380.961383 Z M 85.185236 307.346202 " transform="matrix(0.253854,0,0,0.253854,109.820709,104.990691)"/><path style="fill-rule:nonzero;fill:#ff3131;fill-opacity:1;stroke-width:2;stroke-linecap:butt;stroke-linejoin:miter;stroke:#231f20;stroke-opacity:1;stroke-miterlimit:10;" d="M 232.384823 307.346202 L 306.000005 307.346202 L 306.000005 380.961383 L 232.384823 380.961383 Z M 232.384823 307.346202 " transform="matrix(0.253854,0,0,0.253854,109.820709,104.990691)"/><path style="fill-rule:nonzero;fill:#ff3131;fill-opacity:1;stroke-width:2;stroke-linecap:butt;stroke-linejoin:miter;stroke:#231f20;stroke-opacity:1;stroke-miterlimit:10;" d="M 379.615186 307.346202 L 453.21498 307.346202 L 453.21498 380.961383 L 379.615186 380.961383 Z M 379.615186 307.346202 " transform="matrix(0.253854,0,0,0.253854,109.820709,104.990691)"/><g clip-rule="nonzero" clip-path="url(#2cef679385)"><path style=" stroke:none;fill-rule:nonzero;fill:#ff3131;fill-opacity:1;" d="M 243.554688 183.011719 L 262.242188 183.011719 L 262.242188 201.699219 L 243.554688 201.699219 Z M 243.554688 183.011719 "/></g><g clip-rule="nonzero" clip-path="url(#3028f2e280)"><path style="fill:none;stroke-width:2;stroke-linecap:butt;stroke-linejoin:miter;stroke:#231f20;stroke-opacity:1;stroke-miterlimit:10;" d="M 526.814774 307.346202 L 600.429955 307.346202 L 600.429955 380.961383 L 526.814774 380.961383 Z M 526.814774 307.346202 " transform="matrix(0.253854,0,0,0.253854,109.820709,104.990691)"/></g></g></svg>